<?xml version="1.0" encoding="UTF-8" standalone="no"?>
<!-- Created with Inkscape (http://www.inkscape.org/) -->

<svg
   width="210mm"
   height="297mm"
   viewBox="0 0 210 297"
   version="1.1"
   id="svg12"
   inkscape:version="1.1 (c68e22c387, 2021-05-23)"
   sodipodi:docname="logo.svg"
   xmlns:inkscape="http://www.inkscape.org/namespaces/inkscape"
   xmlns:sodipodi="http://sodipodi.sourceforge.net/DTD/sodipodi-0.dtd"
   xmlns="http://www.w3.org/2000/svg"
   xmlns:svg="http://www.w3.org/2000/svg">
  <sodipodi:namedview
     id="namedview14"
     pagecolor="#ffffff"
     bordercolor="#666666"
     borderopacity="1.0"
     inkscape:pageshadow="2"
     inkscape:pageopacity="0.0"
     inkscape:pagecheckerboard="0"
     inkscape:document-units="mm"
     showgrid="false"
     inkscape:zoom="0.85165544"
     inkscape:cx="609.98847"
     inkscape:cy="513.7054"
     inkscape:window-width="1024"
     inkscape:window-height="705"
     inkscape:window-x="-8"
     inkscape:window-y="-8"
     inkscape:window-maximized="1"
     inkscape:current-layer="layer1" />
  <defs
     id="defs9" />
  <g
     inkscape:label="Camada 1"
     inkscape:groupmode="layer"
     id="layer1">
    <path
       style="fill:#000000;stroke:#000000;stroke-width:0.264583px;stroke-linecap:butt;stroke-linejoin:miter;stroke-opacity:1"
       d="m 86.003341,119.72368 v 2.08693 l 1.531072,-0.0194 0.01999,-2.09302 z"
       id="path61"
       sodipodi:nodetypes="ccccc" />
    <path
       style="fill:#000000;stroke:#000000;stroke-width:0.264583px;stroke-linecap:butt;stroke-linejoin:miter;stroke-opacity:1"
       d="m 60.036871,140.26726 c 2.520362,-4.79749 5.099911,-11.98275 16.698483,-15.99948 6.216034,-2.08314 11.73751,-1.98338 16.931487,-0.85434 11.947609,2.62596 18.735369,11.27137 19.727509,16.93149 -8.96168,-2.2567 -10.02685,-0.61744 -13.747122,0.85433 -0.917817,-2.66374 -1.932039,-5.34676 -3.5727,-8.15507 1.120698,3.10563 1.611887,6.30119 1.708682,9.55309 -5.947374,-2.8341 -6.411606,-2.9708 -10.32976,-2.64069 l 0.194169,19.84402 c 0.03519,3.59676 4.30051,2.52334 5.164879,1.0485 0.633847,-1.08151 -0.02178,-4.73771 0.155335,-4.73771 h 1.398013 l -0.194171,4.42704 c -0.0773,1.76241 -2.325537,3.28046 -4.776544,3.02903 -1.031998,-0.29782 -3.361937,-1.47883 -3.26203,-2.87369 0.16951,-2.36665 -0.07766,-20.73719 -0.07766,-20.73719 -1.97933,0.15447 -2.132109,-0.56282 -10.174425,2.48535 0.41536,-2.98497 0.356953,-5.83458 1.708682,-9.08708 -1.706323,2.69247 -2.652683,5.38494 -3.339698,8.07741 -3.362753,-1.39933 -6.063479,-3.28545 -14.213129,-1.16501 z"
       id="path343"
       sodipodi:nodetypes="ccccccccssccscsccccc" />
    <path
       style="fill:#000000;stroke:#000000;stroke-width:0.264583px;stroke-linecap:butt;stroke-linejoin:miter;stroke-opacity:1"
       d="m 144.03412,162.13062 -0.0776,-6.05806 -0.93202,0.0776 c 0,0 0.0777,0.89317 -0.11653,0.8155 -0.0255,-0.5274 -3.237,-1.07644 -3.37854,-0.69901 -2.22162,0.50594 -2.52419,2.25235 -2.52419,2.25235 -0.23301,1.50622 0.89827,3.20972 3.02904,3.68921 1.15341,-0.15773 2.53899,-0.17036 2.91252,-0.81551 l -0.0388,0.81551 z"
       id="path345"
       sodipodi:nodetypes="cccccscccc" />
    <path
       style="fill:#ffffff;stroke:#000000;stroke-width:0.264583px;stroke-linecap:butt;stroke-linejoin:miter;stroke-opacity:1"
       d="m 142.48078,157.82008 c -0.3495,-0.15533 -1.76389,-0.91123 -2.71836,-0.66017 -0.81458,0.21426 -1.8026,0.98469 -1.74752,1.82518 0.0965,1.47217 1.24737,2.14949 2.29119,2.25236 0.90451,0.0891 1.99619,-0.41436 2.44652,-1.20385 0.33449,-0.58641 -0.27183,-2.21352 -0.27183,-2.21352 z"
       id="path347"
       sodipodi:nodetypes="ssssss" />
    <path
       style="fill:#000000;stroke:#000000;stroke-width:0.264583px;stroke-linecap:butt;stroke-linejoin:miter;stroke-opacity:1"
       d="m 132.61702,154.40272 0.23301,5.39788 c 0.42773,1.48911 1.85911,1.97328 3.72803,2.33003 l -3e-5,-0.93202 c -0.76169,0.0868 -1.51442,0.21399 -2.67952,-1.51451 l -0.0388,-5.39788 z"
       id="path349"
       sodipodi:nodetypes="ccccccc" />
    <path
       style="fill:#000000;stroke:#000000;stroke-width:0.264583px;stroke-linecap:butt;stroke-linejoin:miter;stroke-opacity:1"
       d="m 128.61715,154.36388 h 1.16501 l 0.11653,4.93188 c 0.0369,1.56039 1.63645,1.80723 2.48536,1.94169 l 0.0776,1.00967 c -1.45967,-0.0279 -2.78483,-0.61054 -3.72803,-2.29119 z"
       id="path351"
       sodipodi:nodetypes="ccscccc" />
    <path
       style="fill:#000000;stroke:#000000;stroke-width:0.264583px;stroke-linecap:butt;stroke-linejoin:miter;stroke-opacity:1"
       d="m 126.86964,159.87827 0.89317,0.0388 c -0.23923,0.98539 -0.7962,1.89512 -3.18436,2.36886 -1.46737,-0.24963 -2.79968,-0.76937 -3.65037,-2.25236 -0.23384,-3.48151 2.47511,-3.85267 3.18437,-3.8057 1.17283,0.0777 1.43977,-0.0599 1.86401,0.233 0,0 1.26022,0.57936 1.63102,1.12618 0.35776,0.52758 0.42717,1.86402 0.42717,1.86402 l -6.05806,-0.19417 c 0.57287,2.23572 1.59346,1.63592 2.44653,2.09702 1.52343,-0.20872 1.91945,-0.86839 2.44652,-1.47565 z"
       id="path353"
       sodipodi:nodetypes="ccccssscccc" />
    <path
       style="fill:#ffffff;stroke:#000000;stroke-width:0.264583px;stroke-linecap:butt;stroke-linejoin:miter;stroke-opacity:1"
       d="m 123.21927,157.35408 c -0.53457,0.20472 -0.94904,0.45747 -0.96931,0.8679 l 4.46925,0.20359 c 0,0 -0.79334,-1.16785 -1.4487,-1.35689 -0.66329,-0.19132 -2.05124,0.2854 -2.05124,0.2854 z"
       id="path355"
       sodipodi:nodetypes="cccsc" />
    <path
       style="fill:#000000;stroke:#000000;stroke-width:0.264583px;stroke-linecap:butt;stroke-linejoin:miter;stroke-opacity:1"
       d="m 120.49255,156.16252 0.0549,0.82378 c 0,0 -1.59148,0.24134 -2.16931,0.74141 -0.31883,0.27592 -0.57665,1.12584 -0.57665,1.12584 l 0.0275,3.29515 h -1.07092 l -0.0549,-6.12348 1.04346,0.0824 -0.0275,0.96108 c 0,0 0.85809,-0.6936 1.37298,-0.85124 0.44671,-0.13676 1.40044,-0.0549 1.40044,-0.0549 z"
       id="path357"
       sodipodi:nodetypes="ccsccccccsc" />
    <path
       style="fill:#000000;stroke:#000000;stroke-width:0.264583px;stroke-linecap:butt;stroke-linejoin:miter;stroke-opacity:1"
       d="m 109.15175,154.32273 h 1.20822 l -0.0824,2.85579 c -0.0469,-0.14063 1.71735,-1.02156 1.94963,-1.07092 1.52859,-0.32484 3.36244,0.89662 3.13039,0.96108 0,0 0.81709,1.00778 0.90617,1.62011 0.1202,0.82625 0.0283,1.84087 -0.54919,2.44391 -0.87228,0.91089 -2.39644,1.10612 -3.65213,0.98854 -0.64807,-0.0607 -1.75741,-0.85125 -1.75741,-0.85125 l -0.0549,0.85125 h -1.07092 z"
       id="path359"
       sodipodi:nodetypes="cccscaaacccc" />
    <path
       style="fill:#ffffff;stroke:#000000;stroke-width:0.264583px;stroke-linecap:butt;stroke-linejoin:miter;stroke-opacity:1"
       d="m 112.22722,157.09614 c -0.60416,0 -2.54573,1.42098 -1.82648,2.64197 0.71926,1.22099 1.98502,1.56933 2.67773,1.47696 1.77246,-0.23635 2.45849,-1.60696 1.98456,-2.65886 -0.61136,-1.35692 -2.38329,-1.46007 -2.83581,-1.46007 z"
       id="path361"
       sodipodi:nodetypes="szsss" />
    <path
       style="fill:#000000;stroke:#000000;stroke-width:0.264583px;stroke-linecap:butt;stroke-linejoin:miter;stroke-opacity:1"
       d="m 108.89775,162.16929 c -0.0412,0 -1.02287,-0.0206 -1.02287,-0.0206 l -0.15789,-3.85121 c -1.1477,-1.30996 -3.04651,-2.33042 -4.94959,0.47368 l 0.0448,3.37886 h -0.99026 l -0.19416,-3.8057 c -1.47045,-1.39865 -3.016749,-1.91236 -4.795964,0.29126 l -0.05825,3.45619 H 95.62794 l -0.03883,-6.09688 1.184429,0.0777 0.07767,0.9126 c 1.940086,-1.48724 3.700931,-0.6443 5.436721,0.52425 1.86234,-1.56068 3.79492,-1.99761 5.86388,-0.25242 l 0.71843,1.04851 z"
       id="path363"
       sodipodi:nodetypes="ccccccccccccccccc" />
    <path
       style="opacity:1;fill:none;stroke-width:0.587092"
       d="m 334.64238,615.98216 c -6.64324,-3.18713 -8.82888,-6.31879 -8.19881,-11.74754 0.22754,-1.96052 0.21728,-19.93323 -0.0228,-39.93937 l -0.43651,-36.37479 -5.94505,0.35809 c -6.57683,0.39613 -12.53104,1.85343 -24.12277,5.90408 -4.18555,1.4626 -7.71753,2.55184 -7.84885,2.42052 -0.4825,-0.48251 1.7672,-17.76728 2.95452,-22.70003 l 1.22497,-5.08912 3.29134,-0.20087 c 2.96508,-0.18095 4.86703,-0.0112 11.8772,1.06023 1.69015,0.25831 2.37177,0.0634 3.31381,-0.9478 0.66281,-0.71144 1.34243,-1.01989 1.54061,-0.69923 0.19504,0.31559 2.31919,0.5815 4.72032,0.59091 4.7367,0.0186 5.84481,-0.57427 5.5127,-2.94935 -0.16556,-1.18403 0.0895,-1.37906 2.01199,-1.53817 1.89265,-0.15665 2.20159,-0.3832 2.20159,-1.61451 -3e-5,-1.30213 -0.23566,-1.43229 -2.59302,-1.43229 -1.46465,0 -2.69307,0.30026 -2.82299,0.69002 -0.16677,0.50032 -3.27596,0.66602 -11.30913,0.60273 -6.81401,-0.0537 -11.35743,0.14368 -11.80204,0.51268 -0.49362,0.40967 -0.84358,0.40471 -1.10337,-0.0156 -0.20925,-0.33858 -2.21421,-0.6156 -4.45545,-0.6156 -2.32527,0 -4.075,-0.25209 -4.075,-0.58709 0,-0.79566 -3.93953,-0.75022 -4.4348,0.0511 -0.21695,0.35104 -0.10045,0.93226 0.25889,1.2916 0.86382,0.86382 0.83751,3.19475 -0.0394,3.48704 -0.38675,0.12891 -0.52455,0.66915 -0.31198,1.22311 0.27035,0.7045 1.06703,0.9922 2.74754,0.9922 1.30174,0 2.36679,0.0745 2.36679,0.16547 0,0.091 -1.13474,2.68506 -2.52165,5.76456 -1.38691,3.07951 -3.43266,8.55665 -4.54611,12.17143 -1.11344,3.61479 -2.29037,6.45332 -2.6154,6.30786 -13.60794,-6.09014 -20.84912,-7.72393 -31.70681,-7.15384 -3.87481,0.20345 -9.68702,0.89456 -12.91603,1.53582 -3.229,0.64125 -5.95743,1.16679 -6.06317,1.16787 -0.57109,0.006 8.75569,-16.99433 12.07599,-22.01118 5.08628,-7.68518 15.47136,-18.12186 23.02592,-23.14032 21.17364,-14.06556 48.07874,-21.06948 72.52816,-18.88047 19.51906,1.74758 37.50417,7.47295 52.31087,16.65261 6.37097,3.94979 7.00911,4.59511 6.14345,6.21262 -0.51286,0.95828 -0.40193,1.33665 0.59699,2.03632 1.08272,0.75836 1.13729,1.02116 0.46443,2.23633 -0.41936,0.75734 -0.79995,2.08475 -0.84576,2.94979 -0.0724,1.36781 0.13513,1.56659 1.59247,1.52516 0.92166,-0.0262 1.67574,-0.27163 1.67574,-0.5454 0,-0.27376 0.27979,-0.49774 0.62175,-0.49774 0.34195,0 0.49928,0.19814 0.3496,0.44031 -0.14967,0.24218 0.33789,0.44032 1.08348,0.44032 0.74558,0 1.25242,-0.16694 1.12632,-0.37098 -0.12611,-0.20405 0.84316,-0.64321 2.15393,-0.97592 1.98037,-0.50267 2.32944,-0.46477 2.06505,0.22422 -0.27756,0.72332 0.2709,1.06804 1.47249,0.92551 0.60158,-0.0714 6.71955,7.10305 10.23278,11.99975 3.62884,5.05786 7.903,13.4659 9.29547,18.28588 0.48974,1.69523 0.83863,3.08087 0.77531,3.0792 -0.0633,-0.002 -3.15333,-0.67817 -6.86668,-1.50334 -4.81667,-1.07035 -9.27533,-1.59512 -15.55794,-1.83112 -10.12817,-0.38046 -12.87855,0.11616 -21.83443,3.94253 -2.99999,1.28173 -5.67933,2.33042 -5.9541,2.33042 -0.27476,0 -0.83121,-1.12281 -1.23655,-2.49514 -1.97825,-6.69756 -10.88902,-26.24085 -12.38651,-27.16635 -1.35646,-0.83834 -1.25518,0.47952 0.50737,6.60129 2.24985,7.81434 3.46837,14.4885 4.07618,22.32634 0.25667,3.30973 0.41943,6.01769 0.36169,6.01769 -0.0578,0 -2.97246,-1.34376 -6.47717,-2.98614 -3.50471,-1.64237 -8.74992,-3.80651 -11.65602,-4.80919 -4.90462,-1.69222 -5.8247,-1.81837 -12.82003,-1.75767 -4.1449,0.036 -7.63652,0.16571 -7.75914,0.28832 -0.12261,0.12262 -0.0337,18.04277 0.19755,39.82255 0.40501,38.14168 0.46372,39.67282 1.59468,41.58803 1.84595,3.12603 4.54517,4.30473 9.17504,4.00658 7.22159,-0.46507 11.11629,-3.773 11.55315,-9.81259 0.27344,-3.7802 0.59996,-4.33523 2.19117,-3.72462 0.87314,0.33505 0.95842,0.93576 0.63177,4.4503 -0.20768,2.23463 -0.74506,4.76915 -1.19416,5.63226 -3.06599,5.89235 -13.02897,8.86856 -19.42151,5.80171 z M 283.27184,503.43129 c 0,-0.3229 -0.2642,-0.58709 -0.5871,-0.58709 -0.3229,0 -0.58709,0.26419 -0.58709,0.58709 0,0.3229 0.26419,0.58709 0.58709,0.58709 0.3229,0 0.5871,-0.26419 0.5871,-0.58709 z m 4.74748,-5.07909 c 1.34691,-0.53892 2.87345,-1.71033 3.43746,-2.63776 l 1.01456,-1.66831 0.76906,1.43701 c 1.75726,3.28347 8.18899,4.69126 12.57299,2.75201 2.3336,-1.03227 2.80716,-1.0875 3.08634,-0.35998 0.22733,0.59243 1.22212,0.85939 3.20242,0.85939 h 2.87265 v -2.10057 -2.10057 l 2.45404,2.10057 c 2.20529,1.88764 2.80039,2.10057 5.87092,2.10057 4.44073,0 4.42221,-0.7715 -0.10568,-4.40319 -1.9374,-1.55394 -3.52255,-3.02576 -3.52255,-3.27072 0,-0.24496 1.32096,-1.41505 2.93546,-2.6002 3.98562,-2.92571 3.86711,-3.8161 -0.50792,-3.8161 -2.5544,0 -3.82875,0.30314 -4.93611,1.17419 -0.821,0.6458 -1.6492,1.17418 -1.84045,1.17418 -0.19124,0 -0.34771,-1.84934 -0.34771,-4.10964 v -4.10965 h -2.93546 -2.93546 v 7.70067 7.70067 l -1.32096,-0.42982 c -0.72652,-0.2364 -1.84934,-0.39632 -2.49514,-0.35539 -0.6458,0.0409 -2.36304,0.13748 -3.8161,0.21457 l -2.64191,0.14015 v -2.05483 c 0,-1.83336 0.18427,-2.07583 1.70982,-2.24978 0.9404,-0.10724 2.30102,0.12143 3.0236,0.50814 1.08208,0.57911 1.63474,0.51352 3.13369,-0.37193 1.00095,-0.59128 1.81991,-1.51737 1.81991,-2.058 0,-1.25239 -4.61148,-3.46506 -7.18548,-3.44773 -2.55524,0.0172 -6.42311,1.83154 -7.89577,3.70372 l -1.1923,1.51576 -0.67022,-1.47098 c -0.79226,-1.73883 -4.83835,-3.73019 -7.61624,-3.7485 -2.84448,-0.0187 -2.05345,1.38572 0.98474,1.74839 1.47322,0.17585 3.27912,0.95087 4.50437,1.93307 1.69815,1.3613 2.04523,2.02349 2.04523,3.90206 0,1.85493 -0.37385,2.59076 -2.07525,4.08461 -1.65849,1.45618 -2.6017,1.82209 -4.69673,1.82209 -1.93882,0 -2.62149,0.22933 -2.62149,0.88064 0,1.19148 2.82791,1.14907 5.92167,-0.0888 z m -1.45959,-3.5895 c 1.42584,-0.95206 2.02456,-2.95517 1.33538,-4.46774 -0.73693,-1.61739 -3.51937,-3.03909 -4.90628,-2.50689 -1.52675,0.58587 -0.97706,1.55302 0.88268,1.55302 1.31673,0 1.94416,0.37376 2.43469,1.45034 0.86108,1.88989 -0.19154,3.24639 -2.51916,3.24639 -0.92916,0 -1.68939,0.26419 -1.68939,0.58709 0,0.67519 3.49559,0.78313 4.46208,0.13779 z m 108.84666,-4.24743 c 0,-0.3229 -0.27979,-0.58709 -0.62175,-0.58709 -0.34195,0 -0.45846,0.26419 -0.25889,0.58709 0.19956,0.3229 0.47935,0.58709 0.62174,0.58709 0.14239,0 0.2589,-0.26419 0.2589,-0.58709 z"
       id="path11413"
       transform="scale(0.26458333)" />
    <path
       style="opacity:1;fill:none;stroke-width:0.587092"
       d="m 334.64238,615.98216 c -6.64324,-3.18713 -8.82888,-6.31879 -8.19881,-11.74754 0.22754,-1.96052 0.21728,-19.93323 -0.0228,-39.93937 l -0.43651,-36.37479 -5.94505,0.35809 c -6.57683,0.39613 -12.53104,1.85343 -24.12277,5.90408 -4.18555,1.4626 -7.71753,2.55184 -7.84885,2.42052 -0.4825,-0.48251 1.7672,-17.76728 2.95452,-22.70003 l 1.22497,-5.08912 3.29134,-0.20087 c 2.96508,-0.18095 4.86703,-0.0112 11.8772,1.06023 1.69015,0.25831 2.37177,0.0634 3.31381,-0.9478 0.66281,-0.71144 1.34243,-1.01989 1.54061,-0.69923 0.19504,0.31559 2.31919,0.5815 4.72032,0.59091 4.7367,0.0186 5.84481,-0.57427 5.5127,-2.94935 -0.16556,-1.18403 0.0895,-1.37906 2.01199,-1.53817 1.89265,-0.15665 2.20159,-0.3832 2.20159,-1.61451 -3e-5,-1.30213 -0.23566,-1.43229 -2.59302,-1.43229 -1.46465,0 -2.69307,0.30026 -2.82299,0.69002 -0.16677,0.50032 -3.27596,0.66602 -11.30913,0.60273 -6.81401,-0.0537 -11.35743,0.14368 -11.80204,0.51268 -0.49362,0.40967 -0.84358,0.40471 -1.10337,-0.0156 -0.20925,-0.33858 -2.21421,-0.6156 -4.45545,-0.6156 -2.32527,0 -4.075,-0.25209 -4.075,-0.58709 0,-0.79566 -3.93953,-0.75022 -4.4348,0.0511 -0.21695,0.35104 -0.10045,0.93226 0.25889,1.2916 0.86382,0.86382 0.83751,3.19475 -0.0394,3.48704 -0.38675,0.12891 -0.52455,0.66915 -0.31198,1.22311 0.27035,0.7045 1.06703,0.9922 2.74754,0.9922 1.30174,0 2.36679,0.0745 2.36679,0.16547 0,0.091 -1.13474,2.68506 -2.52165,5.76456 -1.38691,3.07951 -3.43266,8.55665 -4.54611,12.17143 -1.11344,3.61479 -2.29037,6.45332 -2.6154,6.30786 -13.60794,-6.09014 -20.84912,-7.72393 -31.70681,-7.15384 -3.87481,0.20345 -9.68702,0.89456 -12.91603,1.53582 -3.229,0.64125 -5.95743,1.16679 -6.06317,1.16787 -0.57109,0.006 8.75569,-16.99433 12.07599,-22.01118 5.08628,-7.68518 15.47136,-18.12186 23.02592,-23.14032 21.17364,-14.06556 48.07874,-21.06948 72.52816,-18.88047 19.51906,1.74758 37.50417,7.47295 52.31087,16.65261 6.37097,3.94979 7.00911,4.59511 6.14345,6.21262 -0.51286,0.95828 -0.40193,1.33665 0.59699,2.03632 1.08272,0.75836 1.13729,1.02116 0.46443,2.23633 -0.41936,0.75734 -0.79995,2.08475 -0.84576,2.94979 -0.0724,1.36781 0.13513,1.56659 1.59247,1.52516 0.92166,-0.0262 1.67574,-0.27163 1.67574,-0.5454 0,-0.27376 0.27979,-0.49774 0.62175,-0.49774 0.34195,0 0.49928,0.19814 0.3496,0.44031 -0.14967,0.24218 0.33789,0.44032 1.08348,0.44032 0.74558,0 1.25242,-0.16694 1.12632,-0.37098 -0.12611,-0.20405 0.84316,-0.64321 2.15393,-0.97592 1.98037,-0.50267 2.32944,-0.46477 2.06505,0.22422 -0.27756,0.72332 0.2709,1.06804 1.47249,0.92551 0.60158,-0.0714 6.71955,7.10305 10.23278,11.99975 3.62884,5.05786 7.903,13.4659 9.29547,18.28588 0.48974,1.69523 0.83863,3.08087 0.77531,3.0792 -0.0633,-0.002 -3.15333,-0.67817 -6.86668,-1.50334 -4.81667,-1.07035 -9.27533,-1.59512 -15.55794,-1.83112 -10.12817,-0.38046 -12.87855,0.11616 -21.83443,3.94253 -2.99999,1.28173 -5.67933,2.33042 -5.9541,2.33042 -0.27476,0 -0.83121,-1.12281 -1.23655,-2.49514 -1.97825,-6.69756 -10.88902,-26.24085 -12.38651,-27.16635 -1.35646,-0.83834 -1.25518,0.47952 0.50737,6.60129 2.24985,7.81434 3.46837,14.4885 4.07618,22.32634 0.25667,3.30973 0.41943,6.01769 0.36169,6.01769 -0.0578,0 -2.97246,-1.34376 -6.47717,-2.98614 -3.50471,-1.64237 -8.74992,-3.80651 -11.65602,-4.80919 -4.90462,-1.69222 -5.8247,-1.81837 -12.82003,-1.75767 -4.1449,0.036 -7.63652,0.16571 -7.75914,0.28832 -0.12261,0.12262 -0.0337,18.04277 0.19755,39.82255 0.40501,38.14168 0.46372,39.67282 1.59468,41.58803 1.84595,3.12603 4.54517,4.30473 9.17504,4.00658 7.22159,-0.46507 11.11629,-3.773 11.55315,-9.81259 0.27344,-3.7802 0.59996,-4.33523 2.19117,-3.72462 0.87314,0.33505 0.95842,0.93576 0.63177,4.4503 -0.20768,2.23463 -0.74506,4.76915 -1.19416,5.63226 -3.06599,5.89235 -13.02897,8.86856 -19.42151,5.80171 z M 283.27184,503.43129 c 0,-0.3229 -0.2642,-0.58709 -0.5871,-0.58709 -0.3229,0 -0.58709,0.26419 -0.58709,0.58709 0,0.3229 0.26419,0.58709 0.58709,0.58709 0.3229,0 0.5871,-0.26419 0.5871,-0.58709 z m 4.74748,-5.07909 c 1.34691,-0.53892 2.87345,-1.71033 3.43746,-2.63776 l 1.01456,-1.66831 0.76906,1.43701 c 1.75726,3.28347 8.18899,4.69126 12.57299,2.75201 2.3336,-1.03227 2.80716,-1.0875 3.08634,-0.35998 0.22733,0.59243 1.22212,0.85939 3.20242,0.85939 h 2.87265 v -2.10057 -2.10057 l 2.45404,2.10057 c 2.20529,1.88764 2.80039,2.10057 5.87092,2.10057 4.44073,0 4.42221,-0.7715 -0.10568,-4.40319 -1.9374,-1.55394 -3.52255,-3.02576 -3.52255,-3.27072 0,-0.24496 1.32096,-1.41505 2.93546,-2.6002 3.98562,-2.92571 3.86711,-3.8161 -0.50792,-3.8161 -2.5544,0 -3.82875,0.30314 -4.93611,1.17419 -0.821,0.6458 -1.6492,1.17418 -1.84045,1.17418 -0.19124,0 -0.34771,-1.84934 -0.34771,-4.10964 v -4.10965 h -2.93546 -2.93546 v 7.70067 7.70067 l -1.32096,-0.42982 c -0.72652,-0.2364 -1.84934,-0.39632 -2.49514,-0.35539 -0.6458,0.0409 -2.36304,0.13748 -3.8161,0.21457 l -2.64191,0.14015 v -2.05483 c 0,-1.83336 0.18427,-2.07583 1.70982,-2.24978 0.9404,-0.10724 2.30102,0.12143 3.0236,0.50814 1.08208,0.57911 1.63474,0.51352 3.13369,-0.37193 1.00095,-0.59128 1.81991,-1.51737 1.81991,-2.058 0,-1.25239 -4.61148,-3.46506 -7.18548,-3.44773 -2.55524,0.0172 -6.42311,1.83154 -7.89577,3.70372 l -1.1923,1.51576 -0.67022,-1.47098 c -0.79226,-1.73883 -4.83835,-3.73019 -7.61624,-3.7485 -2.84448,-0.0187 -2.05345,1.38572 0.98474,1.74839 1.47322,0.17585 3.27912,0.95087 4.50437,1.93307 1.69815,1.3613 2.04523,2.02349 2.04523,3.90206 0,1.85493 -0.37385,2.59076 -2.07525,4.08461 -1.65849,1.45618 -2.6017,1.82209 -4.69673,1.82209 -1.93882,0 -2.62149,0.22933 -2.62149,0.88064 0,1.19148 2.82791,1.14907 5.92167,-0.0888 z m -1.45959,-3.5895 c 1.42584,-0.95206 2.02456,-2.95517 1.33538,-4.46774 -0.73693,-1.61739 -3.51937,-3.03909 -4.90628,-2.50689 -1.52675,0.58587 -0.97706,1.55302 0.88268,1.55302 1.31673,0 1.94416,0.37376 2.43469,1.45034 0.86108,1.88989 -0.19154,3.24639 -2.51916,3.24639 -0.92916,0 -1.68939,0.26419 -1.68939,0.58709 0,0.67519 3.49559,0.78313 4.46208,0.13779 z m 108.84666,-4.24743 c 0,-0.3229 -0.27979,-0.58709 -0.62175,-0.58709 -0.34195,0 -0.45846,0.26419 -0.25889,0.58709 0.19956,0.3229 0.47935,0.58709 0.62174,0.58709 0.14239,0 0.2589,-0.26419 0.2589,-0.58709 z"
       id="path11452"
       transform="scale(0.26458333)" />
  </g>
</svg>
